<?xml version="1.0" encoding="UTF-8" standalone="no"?>
<svg xmlns="http://www.w3.org/2000/svg" viewBox="0 0 400 300" width="400" height="300">
  <rect x="0" y="0" width="400" height="300" fill="#ffffff"/>
  <!-- Generation I -->
  <rect x="60" y="30" width="30" height="30" fill="#ffffff" stroke="#000000" stroke-width="2"/>
  <circle cx="145" cy="45" r="15" fill="#333333" stroke="#000000" stroke-width="2"/>
  <line x1="90" y1="45" x2="130" y2="45" stroke="#000000" stroke-width="2"/>
  <line x1="117" y1="45" x2="117" y2="90" stroke="#000000" stroke-width="2"/>
  <!-- Generation II -->
  <circle cx="70" cy="140" r="15" fill="#333333" stroke="#000000" stroke-width="2"/>
  <circle cx="170" cy="140" r="15" fill="#333333" stroke="#000000" stroke-width="2"/>
  <rect x="235" y="125" width="30" height="30" fill="#ffffff" stroke="#000000" stroke-width="2"/>
  <line x1="70" y1="90" x2="170" y2="90" stroke="#000000" stroke-width="2"/>
  <line x1="70" y1="90" x2="70" y2="125" stroke="#000000" stroke-width="2"/>
  <line x1="170" y1="90" x2="170" y2="125" stroke="#000000" stroke-width="2"/>
  <line x1="185" y1="140" x2="235" y2="140" stroke="#000000" stroke-width="2"/>
  <line x1="210" y1="140" x2="210" y2="200" stroke="#000000" stroke-width="2"/>
  <!-- Generation III -->
  <circle cx="210" cy="240" r="15" fill="#333333" stroke="#000000" stroke-width="3"/>
  <line x1="210" y1="240" x2="195" y2="265" stroke="#000000" stroke-width="2"/>
  <text x="210" y="280" text-anchor="middle" font-family="sans-serif" font-size="10" fill="#000000">Proband</text>
</svg>
